<?xml version="1.0" encoding="UTF-8"?>
<svg width="1715px" height="1050px" viewBox="0 0 1715 1050" version="1.1" xmlns="http://www.w3.org/2000/svg" xmlns:xlink="http://www.w3.org/1999/xlink">
    <title>mccp_MedicalTeam</title>
    <defs>
        <linearGradient x1="-6.04706158%" y1="69.8197095%" x2="137.484751%" y2="22.0326163%" id="linearGradient-1">
            <stop stop-color="#FFFFFF" offset="0%"></stop>
            <stop stop-color="#EFF7FF" offset="21.86%"></stop>
            <stop stop-color="#C5E2FF" offset="64.47%"></stop>
            <stop stop-color="#9DCEFF" offset="100%"></stop>
        </linearGradient>
        <linearGradient x1="96.0022233%" y1="17.444777%" x2="-16.4285778%" y2="97.0030759%" id="linearGradient-2">
            <stop stop-color="#293754" offset="11.4%"></stop>
            <stop stop-color="#293957" offset="27.21%"></stop>
            <stop stop-color="#2B3E60" offset="38.74%"></stop>
            <stop stop-color="#2D4870" offset="48.92%"></stop>
            <stop stop-color="#305687" offset="58.3%"></stop>
            <stop stop-color="#3367A4" offset="67.15%"></stop>
            <stop stop-color="#387DC7" offset="75.6%"></stop>
            <stop stop-color="#3D96F1" offset="83.58%"></stop>
            <stop stop-color="#3F9FFF" offset="86.03%"></stop>
        </linearGradient>
        <linearGradient x1="-2.22915368e-13%" y1="50%" x2="100%" y2="50%" id="linearGradient-3">
            <stop stop-color="#C5E2FF" offset="0.1653439%"></stop>
            <stop stop-color="#3F9FFF" offset="99.97%"></stop>
        </linearGradient>
        <linearGradient x1="0%" y1="50%" x2="100%" y2="50%" id="linearGradient-4">
            <stop stop-color="#C5E2FF" offset="0.1653439%"></stop>
            <stop stop-color="#3F9FFF" offset="99.97%"></stop>
        </linearGradient>
        <linearGradient x1="51.1700462%" y1="49.8152958%" x2="39.3269378%" y2="47.3114574%" id="linearGradient-5">
            <stop stop-color="#009FFF" offset="8.836066%"></stop>
            <stop stop-color="#1BA6FF" offset="28.23%"></stop>
            <stop stop-color="#3CAFFF" offset="56.21%"></stop>
            <stop stop-color="#50B5FF" offset="79.58%"></stop>
            <stop stop-color="#57B7FF" offset="95.33%"></stop>
        </linearGradient>
        <linearGradient x1="35.6748233%" y1="39.0349784%" x2="77.7500588%" y2="77.844329%" id="linearGradient-6">
            <stop stop-color="#009FFF" offset="8.836066%"></stop>
            <stop stop-color="#1BA6FF" offset="28.23%"></stop>
            <stop stop-color="#3CAFFF" offset="56.21%"></stop>
            <stop stop-color="#50B5FF" offset="79.58%"></stop>
            <stop stop-color="#57B7FF" offset="95.33%"></stop>
        </linearGradient>
        <linearGradient x1="23.5661107%" y1="-120.793723%" x2="57.5856954%" y2="109.960606%" id="linearGradient-7">
            <stop stop-color="#0066CE" offset="9.119217%"></stop>
            <stop stop-color="#57B7FF" offset="99.46%"></stop>
        </linearGradient>
        <linearGradient x1="49.9566733%" y1="117.878078%" x2="49.9566733%" y2="15.3223881%" id="linearGradient-8">
            <stop stop-color="#BFE0FF" offset="8.73066%"></stop>
            <stop stop-color="#C3E2FF" offset="12.38%"></stop>
            <stop stop-color="#E4F2FF" offset="46.77%"></stop>
            <stop stop-color="#F8FBFF" offset="75.48%"></stop>
            <stop stop-color="#FFFFFF" offset="94.84%"></stop>
        </linearGradient>
        <linearGradient x1="50.9404829%" y1="146.802692%" x2="49.209042%" y2="-5.28393954%" id="linearGradient-9">
            <stop stop-color="#BFE0FF" offset="8.73066%"></stop>
            <stop stop-color="#C3E2FF" offset="12.38%"></stop>
            <stop stop-color="#E4F2FF" offset="46.77%"></stop>
            <stop stop-color="#F8FBFF" offset="75.48%"></stop>
            <stop stop-color="#FFFFFF" offset="94.84%"></stop>
        </linearGradient>
        <linearGradient x1="123.165021%" y1="49.8718734%" x2="33.3208934%" y2="49.9633663%" id="linearGradient-10">
            <stop stop-color="#91CFFF" offset="0%"></stop>
            <stop stop-color="#0066CE" offset="99.96%"></stop>
        </linearGradient>
        <linearGradient x1="125.399928%" y1="49.30664%" x2="33.5696075%" y2="49.4204153%" id="linearGradient-11">
            <stop stop-color="#91CFFF" offset="0%"></stop>
            <stop stop-color="#0066CE" offset="99.96%"></stop>
        </linearGradient>
        <linearGradient x1="93.5793776%" y1="-12.4301978%" x2="25.5533554%" y2="65.0313752%" id="linearGradient-12">
            <stop stop-color="#91CFFF" offset="0%"></stop>
            <stop stop-color="#4C9DE8" offset="43.06%"></stop>
            <stop stop-color="#1575D5" offset="81.45%"></stop>
            <stop stop-color="#0066CE" offset="99.96%"></stop>
        </linearGradient>
        <linearGradient x1="93.0654141%" y1="-13.6748337%" x2="25.039392%" y2="63.7867393%" id="linearGradient-13">
            <stop stop-color="#91CFFF" offset="0%"></stop>
            <stop stop-color="#4C9DE8" offset="43.06%"></stop>
            <stop stop-color="#1575D5" offset="81.45%"></stop>
            <stop stop-color="#0066CE" offset="99.96%"></stop>
        </linearGradient>
        <linearGradient x1="61.0737539%" y1="-25.6605772%" x2="47.9065766%" y2="87.3661376%" id="linearGradient-14">
            <stop stop-color="#91CFFF" offset="0%"></stop>
            <stop stop-color="#0066CE" offset="99.96%"></stop>
        </linearGradient>
        <linearGradient x1="34.331858%" y1="-119.77988%" x2="55.9310852%" y2="108.851247%" id="linearGradient-15">
            <stop stop-color="#57B7FF" offset="9.017944%"></stop>
            <stop stop-color="#55B3F9" offset="11%"></stop>
            <stop stop-color="#4587BF" offset="32.67%"></stop>
            <stop stop-color="#376491" offset="52.64%"></stop>
            <stop stop-color="#2E4C70" offset="70.29%"></stop>
            <stop stop-color="#283C5C" offset="84.96%"></stop>
            <stop stop-color="#263755" offset="94.84%"></stop>
        </linearGradient>
        <linearGradient x1="243.561387%" y1="20.1133728%" x2="-2.29433384%" y2="56.8500045%" id="linearGradient-16">
            <stop stop-color="#0066CE" offset="9.119217%"></stop>
            <stop stop-color="#009FFF" offset="100%"></stop>
        </linearGradient>
        <linearGradient x1="58.1196316%" y1="80.1245676%" x2="35.8676038%" y2="-4.04025533%" id="linearGradient-17">
            <stop stop-color="#009FFF" offset="0.7275132%"></stop>
            <stop stop-color="#91CFFF" offset="99.23%"></stop>
        </linearGradient>
        <linearGradient x1="53.931463%" y1="75.0495057%" x2="45.4720426%" y2="20.5140077%" id="linearGradient-18">
            <stop stop-color="#009FFF" offset="0.7275132%"></stop>
            <stop stop-color="#91CFFF" offset="99.23%"></stop>
        </linearGradient>
        <radialGradient cx="59.5375843%" cy="-5.21961606%" fx="59.5375843%" fy="-5.21961606%" r="216.705683%" gradientTransform="translate(0.595376,-0.052196),scale(0.584484,1.000000),rotate(180.000000),translate(-0.595376,0.052196)" id="radialGradient-19">
            <stop stop-color="#DDF0FF" offset="0%"></stop>
            <stop stop-color="#D7ECFE" offset="15.03%"></stop>
            <stop stop-color="#C8E2FC" offset="32.69%"></stop>
            <stop stop-color="#BBDCFC" offset="42.66%"></stop>
            <stop stop-color="#9ACCFE" offset="60.99%"></stop>
            <stop stop-color="#6FB7FF" offset="80.67%"></stop>
        </radialGradient>
        <radialGradient cx="46.6030096%" cy="5.06928839%" fx="46.6030096%" fy="5.06928839%" r="160.240794%" gradientTransform="translate(0.466030,0.050693),scale(0.678402,1.000000),rotate(180.000000),translate(-0.466030,-0.050693)" id="radialGradient-20">
            <stop stop-color="#DDF0FF" offset="0%"></stop>
            <stop stop-color="#D7EDFF" offset="12.79%"></stop>
            <stop stop-color="#C5E4FF" offset="30.07%"></stop>
            <stop stop-color="#A9D5FF" offset="49.9%"></stop>
            <stop stop-color="#82C1FF" offset="71.48%"></stop>
            <stop stop-color="#6FB7FF" offset="80.67%"></stop>
        </radialGradient>
        <linearGradient x1="100.061278%" y1="50.0835341%" x2="0.187343358%" y2="50.0835341%" id="linearGradient-21">
            <stop stop-color="#00DBCC" offset="11.4%"></stop>
            <stop stop-color="#00DDCF" offset="46.7%"></stop>
            <stop stop-color="#00E5D8" offset="72.39%"></stop>
            <stop stop-color="#00EDE1" offset="86.03%"></stop>
        </linearGradient>
        <radialGradient cx="3.62840062%" cy="23.346408%" fx="3.62840062%" fy="23.346408%" r="341.570711%" gradientTransform="translate(0.036284,0.233464),scale(1.000000,0.253122),rotate(180.000000),translate(-0.036284,-0.233464)" id="radialGradient-22">
            <stop stop-color="#DDF0FF" offset="0%"></stop>
            <stop stop-color="#D7EDFF" offset="12.79%"></stop>
            <stop stop-color="#C5E4FF" offset="30.07%"></stop>
            <stop stop-color="#A9D5FF" offset="49.9%"></stop>
            <stop stop-color="#82C1FF" offset="71.48%"></stop>
            <stop stop-color="#6FB7FF" offset="80.67%"></stop>
        </radialGradient>
        <radialGradient cx="50.0368082%" cy="49.7691232%" fx="50.0368082%" fy="49.7691232%" r="218.28399%" gradientTransform="translate(0.500368,0.497691),scale(1.000000,0.315044),rotate(180.000000),translate(-0.500368,-0.497691)" id="radialGradient-23">
            <stop stop-color="#DDF0FF" offset="0%"></stop>
            <stop stop-color="#D7EDFF" offset="12.79%"></stop>
            <stop stop-color="#C5E4FF" offset="30.07%"></stop>
            <stop stop-color="#A9D5FF" offset="49.9%"></stop>
            <stop stop-color="#82C1FF" offset="71.48%"></stop>
            <stop stop-color="#6FB7FF" offset="80.67%"></stop>
        </radialGradient>
        <linearGradient x1="74.7554864%" y1="74.9658639%" x2="-8.63401842%" y2="-29.1411039%" id="linearGradient-24">
            <stop stop-color="#293754" offset="11.4%"></stop>
            <stop stop-color="#293957" offset="27.21%"></stop>
            <stop stop-color="#2B3E60" offset="38.74%"></stop>
            <stop stop-color="#2D4870" offset="48.92%"></stop>
            <stop stop-color="#305687" offset="58.3%"></stop>
            <stop stop-color="#3367A4" offset="67.15%"></stop>
            <stop stop-color="#387DC7" offset="75.6%"></stop>
            <stop stop-color="#3D96F1" offset="83.58%"></stop>
            <stop stop-color="#3F9FFF" offset="86.03%"></stop>
        </linearGradient>
        <radialGradient cx="52.6218846%" cy="27.6813187%" fx="52.6218846%" fy="27.6813187%" r="199.450509%" gradientTransform="translate(0.526219,0.276813),scale(0.977509,1.000000),rotate(180.000000),translate(-0.526219,-0.276813)" id="radialGradient-25">
            <stop stop-color="#DDF0FF" offset="0%"></stop>
            <stop stop-color="#D7EDFF" offset="12.79%"></stop>
            <stop stop-color="#C5E4FF" offset="30.07%"></stop>
            <stop stop-color="#A9D5FF" offset="49.9%"></stop>
            <stop stop-color="#82C1FF" offset="71.48%"></stop>
            <stop stop-color="#6FB7FF" offset="80.67%"></stop>
        </radialGradient>
        <linearGradient x1="134.378067%" y1="35.6475199%" x2="38.0724559%" y2="48.0465875%" id="linearGradient-26">
            <stop stop-color="#FFFFFF" offset="0%"></stop>
            <stop stop-color="#0066CE" offset="99.96%"></stop>
        </linearGradient>
        <linearGradient x1="119.67269%" y1="46.0814207%" x2="37.3041026%" y2="51.0577032%" id="linearGradient-27">
            <stop stop-color="#FFFFFF" offset="0%"></stop>
            <stop stop-color="#0066CE" offset="99.96%"></stop>
        </linearGradient>
        <linearGradient x1="66.6778726%" y1="-16.0361976%" x2="35.4056653%" y2="61.9874638%" id="linearGradient-28">
            <stop stop-color="#FFFFFF" offset="0%"></stop>
            <stop stop-color="#A4C9EE" offset="32.04%"></stop>
            <stop stop-color="#4D94DD" offset="65.25%"></stop>
            <stop stop-color="#1573D2" offset="88.68%"></stop>
            <stop stop-color="#0066CE" offset="99.96%"></stop>
        </linearGradient>
        <linearGradient x1="66.1524216%" y1="-10.8415848%" x2="32.1676393%" y2="65.2478937%" id="linearGradient-29">
            <stop stop-color="#FFFFFF" offset="0%"></stop>
            <stop stop-color="#A4C9EE" offset="32.04%"></stop>
            <stop stop-color="#4D94DD" offset="65.25%"></stop>
            <stop stop-color="#1573D2" offset="88.68%"></stop>
            <stop stop-color="#0066CE" offset="99.96%"></stop>
        </linearGradient>
        <linearGradient x1="53.9705122%" y1="40.2521216%" x2="42.2066145%" y2="64.1526586%" id="linearGradient-30">
            <stop stop-color="#FFFFFF" offset="0%"></stop>
            <stop stop-color="#C8DEF4" offset="16.42%"></stop>
            <stop stop-color="#82B4E7" offset="39.3%"></stop>
            <stop stop-color="#4A92DC" offset="59.94%"></stop>
            <stop stop-color="#227AD4" offset="77.56%"></stop>
            <stop stop-color="#096BD0" offset="91.48%"></stop>
            <stop stop-color="#0066CE" offset="99.96%"></stop>
        </linearGradient>
        <linearGradient x1="93.1784198%" y1="40.9333908%" x2="-23.2221652%" y2="62.1123534%" id="linearGradient-31">
            <stop stop-color="#0066CE" offset="9.119217%"></stop>
            <stop stop-color="#0A6CD0" offset="16.88%"></stop>
            <stop stop-color="#267DD5" offset="30.21%"></stop>
            <stop stop-color="#5398DE" offset="47.49%"></stop>
            <stop stop-color="#91BDEA" offset="68.07%"></stop>
            <stop stop-color="#DFECF9" offset="91.17%"></stop>
            <stop stop-color="#FFFFFF" offset="100%"></stop>
        </linearGradient>
        <linearGradient x1="71.5633972%" y1="65.2242335%" x2="22.0034339%" y2="33.400463%" id="linearGradient-32">
            <stop stop-color="#108AFF" stop-opacity="0.8" offset="0%"></stop>
            <stop stop-color="#168DFF" stop-opacity="0.7237" offset="9.54288%"></stop>
            <stop stop-color="#2896FF" stop-opacity="0.6188" offset="22.65%"></stop>
            <stop stop-color="#45A4FF" stop-opacity="0.4973" offset="37.84%"></stop>
            <stop stop-color="#6EB8FF" stop-opacity="0.3634" offset="54.57%"></stop>
            <stop stop-color="#A1D1FF" stop-opacity="0.2193" offset="72.58%"></stop>
            <stop stop-color="#E0F0FF" stop-opacity="0.06893206" offset="91.38%"></stop>
            <stop stop-color="#FFFFFF" stop-opacity="0" offset="100%"></stop>
        </linearGradient>
        <linearGradient x1="119.842308%" y1="45.7901587%" x2="37.4741051%" y2="50.7673413%" id="linearGradient-33">
            <stop stop-color="#FFFFFF" offset="0%"></stop>
            <stop stop-color="#0066CE" offset="99.96%"></stop>
        </linearGradient>
        <linearGradient x1="94.6787503%" y1="31.5162428%" x2="-33.4264516%" y2="68.5237115%" id="linearGradient-34">
            <stop stop-color="#0066CE" offset="9.119217%"></stop>
            <stop stop-color="#0A6CD0" offset="16.88%"></stop>
            <stop stop-color="#267DD5" offset="30.21%"></stop>
            <stop stop-color="#5398DE" offset="47.49%"></stop>
            <stop stop-color="#91BDEA" offset="68.07%"></stop>
            <stop stop-color="#DFECF9" offset="91.17%"></stop>
            <stop stop-color="#FFFFFF" offset="100%"></stop>
        </linearGradient>
        <linearGradient x1="71.9159672%" y1="64.633556%" x2="22.2706116%" y2="32.7526835%" id="linearGradient-35">
            <stop stop-color="#108AFF" stop-opacity="0.8" offset="0%"></stop>
            <stop stop-color="#168DFF" stop-opacity="0.7237" offset="9.54288%"></stop>
            <stop stop-color="#2896FF" stop-opacity="0.6188" offset="22.65%"></stop>
            <stop stop-color="#45A4FF" stop-opacity="0.4973" offset="37.84%"></stop>
            <stop stop-color="#6EB8FF" stop-opacity="0.3634" offset="54.57%"></stop>
            <stop stop-color="#A1D1FF" stop-opacity="0.2193" offset="72.58%"></stop>
            <stop stop-color="#E0F0FF" stop-opacity="0.06893206" offset="91.38%"></stop>
            <stop stop-color="#FFFFFF" stop-opacity="0" offset="100%"></stop>
        </linearGradient>
        <radialGradient cx="89.154851%" cy="30.5029727%" fx="89.154851%" fy="30.5029727%" r="371.158387%" gradientTransform="translate(0.891549,0.305030),scale(0.870639,1.000000),rotate(136.762635),translate(-0.891549,-0.305030)" id="radialGradient-36">
            <stop stop-color="#DDF0FF" offset="0%"></stop>
            <stop stop-color="#D8EEFF" offset="1.590997%"></stop>
            <stop stop-color="#B3DAFF" offset="17.95%"></stop>
            <stop stop-color="#95CBFF" offset="34.25%"></stop>
            <stop stop-color="#80C0FF" offset="50.27%"></stop>
            <stop stop-color="#73B9FF" offset="65.9%"></stop>
            <stop stop-color="#6FB7FF" offset="80.67%"></stop>
        </radialGradient>
        <linearGradient x1="0.0447762883%" y1="50.0692481%" x2="100.061308%" y2="50.0692481%" id="linearGradient-37">
            <stop stop-color="#009FFF" offset="0.7275132%"></stop>
            <stop stop-color="#91CFFF" offset="99.23%"></stop>
        </linearGradient>
        <linearGradient x1="59.952148%" y1="51.1221016%" x2="46.6369938%" y2="49.2582228%" id="linearGradient-38">
            <stop stop-color="#BFE0FF" offset="1.302083%"></stop>
            <stop stop-color="#73B9FF" offset="99.23%"></stop>
        </linearGradient>
        <linearGradient x1="64.2579271%" y1="49.5797346%" x2="46.1352388%" y2="50.0457311%" id="linearGradient-39">
            <stop stop-color="#BFE0FF" offset="1.302083%"></stop>
            <stop stop-color="#73B9FF" offset="99.23%"></stop>
        </linearGradient>
        <linearGradient x1="-29.7291767%" y1="-30.5837757%" x2="100.074158%" y2="99.9084545%" id="linearGradient-40">
            <stop stop-color="#FFFFFF" offset="11.33%"></stop>
            <stop stop-color="#FF9173" offset="85.98%"></stop>
        </linearGradient>
        <linearGradient x1="142.387469%" y1="92.8714147%" x2="-30.0574732%" y2="25.8101919%" id="linearGradient-41">
            <stop stop-color="#FFFFFF" offset="11.33%"></stop>
            <stop stop-color="#FF9173" offset="85.98%"></stop>
        </linearGradient>
        <radialGradient cx="97.9527097%" cy="-18.8025751%" fx="97.9527097%" fy="-18.8025751%" r="282.72558%" gradientTransform="translate(0.979527,-0.188026),scale(0.646855,1.000000),rotate(180.000000),translate(-0.979527,0.188026)" id="radialGradient-42">
            <stop stop-color="#DDF0FF" offset="0%"></stop>
            <stop stop-color="#D7EDFF" offset="12.79%"></stop>
            <stop stop-color="#C5E4FF" offset="30.07%"></stop>
            <stop stop-color="#A9D5FF" offset="49.9%"></stop>
            <stop stop-color="#82C1FF" offset="71.48%"></stop>
            <stop stop-color="#6FB7FF" offset="80.67%"></stop>
        </radialGradient>
        <linearGradient x1="97.8893346%" y1="-26.1841239%" x2="38.8825853%" y2="65.1126218%" id="linearGradient-43">
            <stop stop-color="#3F9FFF" offset="32.25%"></stop>
            <stop stop-color="#3F9DFC" offset="32.78%"></stop>
            <stop stop-color="#3572B5" offset="47.33%"></stop>
            <stop stop-color="#2F5280" offset="59.43%"></stop>
            <stop stop-color="#2B3E60" offset="68.49%"></stop>
            <stop stop-color="#293754" offset="73.48%"></stop>
        </linearGradient>
        <linearGradient x1="5.76392002%" y1="31.7193891%" x2="133.860888%" y2="68.7244792%" id="linearGradient-44">
            <stop stop-color="#0066CE" offset="9.119217%"></stop>
            <stop stop-color="#0A6CD0" offset="16.88%"></stop>
            <stop stop-color="#267DD5" offset="30.21%"></stop>
            <stop stop-color="#5398DE" offset="47.49%"></stop>
            <stop stop-color="#91BDEA" offset="68.07%"></stop>
            <stop stop-color="#DFECF9" offset="91.17%"></stop>
            <stop stop-color="#FFFFFF" offset="100%"></stop>
        </linearGradient>
        <linearGradient x1="31.8062194%" y1="58.6577691%" x2="71.9293642%" y2="39.5107436%" id="linearGradient-45">
            <stop stop-color="#108AFF" stop-opacity="0.5" offset="0%"></stop>
            <stop stop-color="#168DFF" stop-opacity="0.4523" offset="9.54288%"></stop>
            <stop stop-color="#2896FF" stop-opacity="0.3867" offset="22.65%"></stop>
            <stop stop-color="#45A4FF" stop-opacity="0.3108" offset="37.84%"></stop>
            <stop stop-color="#6EB8FF" stop-opacity="0.2271" offset="54.57%"></stop>
            <stop stop-color="#A1D1FF" stop-opacity="0.1371" offset="72.58%"></stop>
            <stop stop-color="#E0F0FF" stop-opacity="0.04308254" offset="91.38%"></stop>
            <stop stop-color="#FFFFFF" stop-opacity="0" offset="100%"></stop>
        </linearGradient>
    </defs>
    <g id="Page-1" stroke="none" stroke-width="1" fill="none" fill-rule="evenodd">
        <g id="mccp_MedicalTeam">
            <path d="M1542.43004,613.181818 C1726.4639,888.333333 1311.77629,1062.27273 772.972816,1048.18182 C-233.40508,1016.81818 -82.692959,305.30303 256.332888,225.30303 C510.678699,165.30303 840.686275,338.484848 1049.63503,182.727273 C1414.18717,-89.2424242 1720.04412,28.9393939 1714.23574,193.484848 C1709.95588,306.818182 1360.68895,341.818182 1542.43004,613.181818 Z" id="Path" fill="url(#linearGradient-1)" fill-rule="nonzero"></path>
            <path d="M844.507576,685.454545 C853.067291,701.363636 854.748663,720.151515 849.245989,737.424242 C839.922014,739.545455 829.986631,738.939394 820.96836,735.757576 C805.836007,743.030303 788.258021,743.636364 772.51426,737.424242 C764.26025,734.090909 757.076203,728.484848 752.184938,721.060606 C750.350713,718.484848 751.114973,714.848485 753.713458,713.030303 C754.324866,712.575758 755.089127,712.272727 755.700535,712.121212 C764.565954,709.848485 773.737077,709.848485 782.602496,712.121212 C804.460339,717.878788 838.699198,646.060606 838.699198,646.060606 L844.507576,685.454545 Z" id="Path" fill="#009FFF" fill-rule="nonzero"></path>
            <path d="M798.651961,705.757576 C807.211676,721.666667 808.893048,740.454545 803.390374,757.727273 C794.066399,759.848485 784.131016,759.242424 775.112745,756.060606 C759.980392,763.333333 742.402406,763.939394 726.658645,757.727273 C718.404635,754.393939 711.220588,748.787879 706.329323,741.363636 C704.495098,738.787879 705.259358,735.151515 707.857843,733.333333 C708.469251,732.878788 709.233512,732.575758 709.84492,732.424242 C718.710339,730.151515 727.881462,730.151515 736.746881,732.424242 C758.604724,738.181818 792.843583,666.363636 792.843583,666.363636 L798.651961,705.757576 Z" id="Path" fill="#009FFF" fill-rule="nonzero"></path>
            <path d="M811.950089,292.424242 L811.950089,11.0606061 C811.950089,9.24242424 811.491533,7.42424242 810.421569,5.90909091 C807.670232,1.06060606 801.709002,-0.606060606 796.817736,1.96969697 C796.664884,1.96969697 796.664884,2.12121212 796.512032,2.12121212 L483.92959,180 C470.631462,187.575758 462.530303,201.666667 462.530303,216.818182 L462.530303,489.393939 C462.530303,491.212121 462.988859,493.030303 464.058824,494.545455 C466.81016,499.393939 472.924242,501.060606 477.815508,498.333333 C477.815508,498.333333 477.96836,498.333333 477.96836,498.181818 L797.887701,316.212121 C806.600267,311.363636 811.797237,302.272727 811.950089,292.424242 Z" id="Path" fill="url(#linearGradient-2)" fill-rule="nonzero"></path>
            <path d="M556.381462,361.969697 C555.464349,361.969697 554.852941,361.363636 554.700089,360.606061 C554.700089,360 555.005793,359.393939 555.464349,359.090909 L590.467469,335.606061 C591.231729,335.151515 592.148841,335.30303 592.607398,336.060606 C593.065954,336.818182 592.913102,337.727273 592.148841,338.181818 L592.148841,338.181818 L557.145722,361.666667 C556.99287,361.818182 556.687166,361.818182 556.381462,361.969697 Z" id="Path" fill="#E0F0FF" fill-rule="nonzero"></path>
            <path d="M556.381462,377.272727 C555.922906,377.272727 555.311497,376.969697 555.158645,376.666667 C554.700089,375.909091 554.852941,375 555.464349,374.545455 L555.464349,374.545455 L590.467469,350.757576 C591.078877,350.30303 592.148841,350.454545 592.607398,351.060606 L592.607398,351.060606 C593.065954,351.818182 592.913102,352.727273 592.301693,353.181818 L592.301693,353.181818 L557.298574,376.969697 C556.99287,377.121212 556.687166,377.272727 556.381462,377.272727 Z" id="Path" fill="#E0F0FF" fill-rule="nonzero"></path>
            <path d="M556.075758,307.878788 C555.617201,307.878788 555.005793,307.575758 554.700089,307.121212 C554.241533,306.363636 554.394385,305.454545 555.158645,305 L555.158645,305 L590.008913,282.424242 C590.773173,281.969697 591.690285,282.121212 592.148841,282.878788 C592.607398,283.636364 592.454545,284.545455 591.690285,285 L556.840018,307.575758 C556.687166,307.878788 556.381462,308.030303 556.075758,307.878788 Z" id="Path" fill="#E0F0FF" fill-rule="nonzero"></path>
            <path d="M556.075758,323.333333 C555.617201,323.333333 555.158645,323.030303 554.852941,322.727273 C554.394385,321.969697 554.547237,321.060606 555.311497,320.606061 L555.311497,320.606061 L590.161765,297.727273 C590.926025,297.272727 591.843137,297.424242 592.301693,298.181818 C592.76025,298.939394 592.607398,299.848485 591.843137,300.30303 L556.99287,323.181818 C556.687166,323.333333 556.381462,323.333333 556.075758,323.333333 Z" id="Path" fill="#E0F0FF" fill-rule="nonzero"></path>
            <path d="M521.22549,350.151515 C520.919786,350.151515 520.614082,350 520.308378,349.848485 L511.595811,343.787879 C510.831551,343.333333 510.678699,342.272727 511.290107,341.666667 C511.748663,340.909091 512.818627,340.757576 513.430036,341.363636 L520.766934,346.363636 L540.179144,307.424242 C540.484848,306.666667 541.401961,306.363636 542.166221,306.666667 L542.166221,306.666667 C542.930481,306.969697 543.236185,307.878788 542.930481,308.636364 L542.930481,308.636364 L522.754011,349.090909 C522.601159,349.545455 522.142602,349.848485 521.684046,349.848485 C521.531194,350.151515 521.378342,350.151515 521.22549,350.151515 Z" id="Path" fill="#E0F0FF" fill-rule="nonzero"></path>
            <path d="M521.531194,405 C521.22549,405 520.919786,404.848485 520.614082,404.69697 L511.748663,398.787879 C510.984403,398.333333 510.831551,397.424242 511.290107,396.666667 L511.290107,396.666667 C511.748663,395.909091 512.665775,395.757576 513.430036,396.212121 L513.430036,396.212121 L520.766934,401.060606 L540.179144,361.666667 C540.484848,360.909091 541.401961,360.606061 542.166221,360.909091 L542.166221,360.909091 C542.930481,361.212121 543.236185,362.121212 542.930481,362.878788 L542.930481,362.878788 L522.754011,403.939394 C522.601159,404.393939 522.142602,404.69697 521.836898,404.69697 C521.836898,405 521.684046,405 521.531194,405 Z" id="Path" fill="#E0F0FF" fill-rule="nonzero"></path>
            <path d="M712.137701,190.454545 C711.679144,190.454545 711.37344,190.30303 711.067736,190 C710.456328,189.393939 710.303476,188.484848 710.914884,187.878788 L710.914884,187.878788 L722.53164,175.454545 L722.53164,164.545455 C722.53164,163.636364 723.143048,163.030303 724.06016,163.030303 L724.06016,163.030303 C724.977273,163.030303 725.588681,163.636364 725.588681,164.545455 L725.588681,176.060606 C725.588681,176.515152 725.435829,176.818182 725.130125,177.121212 L713.054813,190 C712.901961,190.30303 712.596257,190.454545 712.137701,190.454545 Z" id="Path" fill="#E0F0FF" fill-rule="nonzero"></path>
            <path d="M724.213012,177.424242 C723.448752,177.424242 722.684492,176.818182 722.684492,176.060606 C722.53164,175.30303 723.143048,174.545455 724.06016,174.393939 L724.06016,174.393939 L736.135472,173.030303 C737.052585,172.878788 737.816845,173.484848 737.816845,174.393939 C737.816845,175.30303 737.358289,176.060606 736.441176,176.060606 L724.365865,177.424242 L724.213012,177.424242 Z" id="Path" fill="#E0F0FF" fill-rule="nonzero"></path>
            <path d="M688.598485,209.393939 C687.52852,209.393939 686.611408,209.090909 685.694296,208.636364 C683.860071,207.424242 682.790107,205.454545 682.942959,203.181818 C682.942959,198.030303 687.069964,191.666667 692.266934,188.484848 L692.266934,188.484848 C695.323975,186.666667 698.381016,186.363636 700.520945,187.424242 C702.355169,188.636364 703.425134,190.606061 703.272282,192.878788 C703.272282,198.030303 699.145276,204.393939 693.948307,207.575758 C692.266934,208.636364 690.432709,209.242424 688.598485,209.393939 Z M693.948307,191.212121 C689.668449,193.787879 686.152852,199.242424 686.152852,203.181818 C686,204.242424 686.458556,205.30303 687.375668,205.909091 C688.445633,206.515152 690.432709,206.212121 692.419786,205 C696.699643,202.424242 700.215241,196.969697 700.215241,193.030303 C700.368093,191.969697 699.909537,190.909091 698.992424,190.30303 C697.92246,189.69697 695.935383,190 693.948307,191.212121 Z" id="Shape" fill="#E0F0FF" fill-rule="nonzero"></path>
            <path d="M681.261586,234.545455 C680.955882,234.545455 680.80303,234.545455 680.497326,234.393939 C680.03877,234.090909 679.733066,233.636364 679.733066,233.030303 L679.733066,224.69697 C679.885918,222.878788 680.650178,221.060606 682.025847,219.69697 C685.082888,216.515152 688.598485,213.787879 692.419786,211.666667 C695.782531,209.393939 699.603832,208.030303 703.577986,207.575758 L703.577986,207.575758 C704.495098,207.575758 705.259358,207.878788 705.870766,208.484848 C706.482175,209.090909 706.940731,210.151515 706.787879,211.060606 L706.787879,219.090909 C706.787879,219.69697 706.482175,220.151515 706.023619,220.454545 L682.025847,234.545455 C681.720143,234.393939 681.414439,234.545455 681.261586,234.545455 Z M703.577986,210.606061 C700.062389,211.060606 696.699643,212.272727 693.795455,214.242424 C690.279857,216.363636 686.917112,218.787879 684.012923,221.818182 C683.248663,222.575758 682.790107,223.636364 682.637255,224.69697 L682.637255,230.30303 L703.577986,218.030303 L703.577986,210.909091 C703.730838,210.757576 703.730838,210.757576 703.577986,210.606061 Z" id="Shape" fill="#E0F0FF" fill-rule="nonzero"></path>
            <path d="M750.656417,172.575758 C749.586453,172.575758 748.66934,172.272727 747.752228,171.818182 C745.918004,170.606061 744.848039,168.484848 745.000891,166.363636 C745.000891,161.212121 749.127897,154.69697 754.324866,151.666667 L754.324866,151.666667 C757.381907,149.848485 760.438948,149.545455 762.426025,150.757576 C764.26025,151.969697 765.330214,154.090909 765.177362,156.212121 C765.177362,161.363636 761.050357,167.878788 755.853387,170.909091 C754.324866,171.969697 752.490642,172.575758 750.656417,172.575758 Z M756.006239,154.242424 C751.726381,156.818182 748.210784,162.272727 748.057932,166.363636 C747.90508,167.424242 748.363636,168.484848 749.280749,169.090909 C750.350713,169.69697 752.33779,169.393939 754.324866,168.181818 C758.604724,165.606061 762.273173,160.151515 762.273173,156.060606 C762.426025,155 761.967469,153.939394 761.050357,153.333333 C759.82754,152.727273 757.993316,153.030303 756.006239,154.242424 Z" id="Shape" fill="#E0F0FF" fill-rule="nonzero"></path>
            <path d="M743.166667,198.181818 C742.860963,198.181818 742.555258,198.181818 742.402406,198.030303 C741.94385,197.727273 741.638146,197.272727 741.638146,196.666667 L741.638146,188.181818 C741.790998,186.212121 742.555258,184.545455 743.930927,183.181818 C746.987968,180 750.503565,177.272727 754.324866,175 C757.687611,172.727273 761.508913,171.363636 765.483066,170.909091 L765.483066,170.909091 C766.400178,170.909091 767.164439,171.212121 767.775847,171.818182 C768.387255,172.575758 768.692959,173.484848 768.692959,174.393939 L768.692959,182.424242 C768.692959,183.030303 768.387255,183.484848 767.928699,183.787879 L743.930927,197.878788 C743.778075,198.030303 743.472371,198.030303 743.166667,198.181818 Z M765.635918,173.939394 C762.120321,174.393939 758.757576,175.606061 755.853387,177.575758 C752.184938,179.69697 748.975045,182.121212 746.070856,185.151515 C745.306595,185.909091 744.848039,186.969697 744.695187,188.030303 L744.695187,188.030303 L744.695187,193.787879 L765.635918,181.515152 L765.635918,174.242424 C765.635918,174.090909 765.635918,174.090909 765.635918,173.939394 L765.635918,173.939394 Z" id="Shape" fill="#E0F0FF" fill-rule="nonzero"></path>
            <path d="M719.627451,138.181818 C718.710339,138.181818 717.640374,138.030303 716.876114,137.424242 C715.041889,136.212121 713.971925,134.242424 714.124777,131.969697 C714.124777,126.818182 718.251783,120.30303 723.448752,117.121212 L723.448752,117.121212 C726.505793,115.30303 729.562834,114.848485 731.702763,116.060606 C733.536988,117.272727 734.606952,119.242424 734.4541,121.515152 C734.4541,126.666667 730.327094,133.181818 725.130125,136.363636 C723.2959,137.424242 721.461676,138.030303 719.627451,138.181818 Z M724.977273,120 C720.697415,122.575758 717.028966,128.181818 717.028966,132.121212 C716.876114,133.181818 717.33467,134.242424 718.251783,134.848485 C719.321747,135.454545 721.308824,135.151515 723.2959,133.787879 C727.575758,131.212121 731.244207,125.606061 731.244207,121.666667 C731.397059,120.606061 730.938503,119.545455 730.02139,118.939394 C728.951426,118.333333 726.964349,118.636364 724.977273,120 L724.977273,120 Z" id="Shape" fill="#E0F0FF" fill-rule="nonzero"></path>
            <path d="M712.290553,163.636364 C711.984848,163.636364 711.679144,163.636364 711.526292,163.484848 C711.067736,163.181818 710.762032,162.727273 710.762032,162.121212 L710.762032,153.787879 C710.914884,151.818182 711.679144,150.151515 713.054813,148.787879 C716.111854,145.606061 719.627451,142.878788 723.448752,140.606061 C726.811497,138.333333 730.632799,136.969697 734.606952,136.363636 C735.524064,136.363636 736.288324,136.666667 736.899733,137.272727 C737.511141,137.878788 737.969697,138.939394 737.816845,139.848485 L737.816845,147.878788 C737.816845,148.484848 737.511141,148.939394 737.052585,149.242424 L713.054813,163.636364 C712.901961,163.484848 712.596257,163.636364 712.290553,163.636364 Z M734.759804,139.242424 C731.244207,139.69697 727.881462,141.060606 724.977273,143.030303 C721.308824,145.151515 718.09893,147.727273 715.194742,150.757576 C714.430481,151.515152 713.971925,152.575758 713.819073,153.636364 L713.819073,153.636364 L713.819073,159.242424 L734.759804,146.666667 L734.759804,139.242424 C734.759804,139.393939 734.759804,139.393939 734.759804,139.242424 L734.759804,139.242424 Z" id="Shape" fill="#E0F0FF" fill-rule="nonzero"></path>
            <path d="M670.867647,276.818182 C672.701872,276.666667 674.383244,275.30303 674.688948,273.484848 L678.815954,248.787879 C679.121658,246.515152 677.593137,244.393939 675.300357,243.939394 C673.007576,243.484848 670.867647,245.151515 670.409091,247.424242 L666.434938,272.121212 C666.129234,274.393939 667.657754,276.515152 669.950535,276.969697 L670.867647,276.818182 L670.867647,276.818182 Z" id="Path" fill="#FF9173" fill-rule="nonzero"></path>
            <path d="M668.88057,300.151515 C668.88057,300.151515 676.981729,285 676.523173,276.969697 C676.828877,274.242424 676.676025,271.363636 676.064617,268.787879 C675.300357,266.969697 673.31328,266.060606 671.479055,266.818182 L671.479055,266.818182 C670.409091,267.272727 669.644831,268.030303 669.339127,269.242424 C669.186275,270 670.409091,275.909091 670.256239,276.666667 C669.339127,281.969697 667.657754,284.090909 667.199198,278.484848 C668.269162,268.787879 668.574866,259.242424 668.422014,249.545455 C668.269162,247.424242 666.740642,245.757576 664.753565,245.151515 L664.753565,245.151515 C663.377897,244.69697 662.460784,243.484848 662.307932,242.121212 L662.307932,241.212121 C662.15508,239.69697 661.085116,238.484848 659.556595,238.030303 L659.556595,238.030303 C657.722371,237.575758 655.888146,238.787879 655.276738,240.606061 L655.276738,240.606061 C654.66533,242.272727 652.983957,243.333333 651.302585,243.030303 L651.302585,243.030303 C649.621212,242.878788 648.092692,243.787879 647.481283,245.30303 L647.481283,245.30303 C647.175579,245.909091 646.869875,246.515152 646.258467,246.969697 C644.424242,248.333333 643.048574,250 642.284314,252.121212 C640.450089,256.363636 638.921569,260.606061 637.851604,265 C637.5459,271.818182 638.463012,269.848485 644.882799,294.848485" id="Path" fill="#9DCEFF" fill-rule="nonzero"></path>
            <path d="M834.113636,700.606061 L834.113636,700.606061 C818.064171,710.151515 798.193405,710.151515 782.143939,700.606061 L782.143939,700.606061 C774.195633,695.757576 769.304367,687.272727 769.304367,678.030303 L769.304367,426.666667 L847.258913,426.666667 L847.258913,677.878788 C847.258913,687.272727 842.214795,695.909091 834.113636,700.606061 Z" id="Path" fill="url(#linearGradient-3)" fill-rule="nonzero"></path>
            <path d="M795.59492,722.272727 L795.59492,722.272727 C779.23975,731.666667 759.06328,731.666667 742.555258,722.272727 L742.555258,722.272727 C734.4541,717.727273 729.562834,709.090909 729.562834,700 L729.562834,500.606061 L809.0459,450.909091 L809.0459,699.848485 C808.893048,709.242424 803.84893,717.727273 795.59492,722.272727 Z" id="Path" fill="url(#linearGradient-4)" fill-rule="nonzero"></path>
            <path d="M809.657308,300.909091 C809.657308,300.909091 803.237522,316.363636 816.229947,323.484848 L763.801693,334.69697 C763.801693,334.69697 764.718806,319.848485 757.993316,320.757576 C734.148396,323.484848 731.549911,294.545455 731.549911,294.545455 C730.785651,290.30303 730.632799,286.060606 730.938503,281.818182 C730.938503,281.818182 727.422906,278.181818 728.645722,274.848485 C729.868538,271.515152 736.441176,269.545455 736.594029,262.424242 C736.746881,255.30303 729.562834,250.30303 743.166667,232.424242 C756.770499,214.545455 794.524955,240.30303 794.524955,240.30303 L809.657308,300.909091 Z" id="Path" fill="#9DCEFF" fill-rule="nonzero"></path>
            <path d="M847.717469,451.515152 L847.717469,485.151515 C847.717469,489.393939 845.57754,493.181818 841.909091,495.454545 L797.887701,525.909091 C782.9082,535.30303 764.26025,533.484848 748.210784,526.515152 L736.288324,521.363636 C732.008467,519.393939 729.104278,515.151515 729.104278,510.454545 L729.104278,476.818182 C729.104278,481.515152 731.855615,485.757576 736.288324,487.727273 L748.210784,492.878788 C764.413102,500 783.061052,498.484848 797.887701,489.242424 L842.061943,461.969697 C845.730392,459.69697 847.870321,455.757576 847.717469,451.515152 Z" id="Path" fill="#C5E2FF" fill-rule="nonzero"></path>
            <path d="M847.564617,362.121212 L847.564617,467.272727 C847.564617,471.515152 845.424688,475.30303 841.756239,477.575758 L797.581996,504.848485 C782.602496,514.242424 763.954545,515.606061 747.90508,508.484848 L735.98262,503.333333 C731.702763,501.515152 728.798574,497.121212 728.798574,492.424242 L728.798574,395.454545 C728.187166,390.454545 728.187166,385.454545 728.798574,380.454545 C730.02139,359.242424 743.013815,340.454545 762.578877,331.818182 C778.169786,324.848485 788.258021,321.818182 793.913547,319.393939 C802.32041,315.909091 811.491533,314.69697 820.356952,315.909091 C833.65508,317.575758 847.564617,328.030303 847.564617,362.121212 Z" id="Path" fill="#6FB7FF" fill-rule="nonzero"></path>
            <path d="M644.424242,294.848485 C647.93984,293.181818 651.761141,292.272727 655.582442,291.969697 C661.39082,291.515152 667.046346,292.878788 672.090463,295.757576 C669.033422,297.878788 667.35205,301.515152 667.504902,305.151515 L668.422014,316.212121 C659.403743,320.151515 649.009804,318.939394 641.214349,313.030303 C643.965686,307.424242 645.035651,301.060606 644.424242,294.848485 Z" id="Path" fill="#FFFFFF" fill-rule="nonzero"></path>
            <path d="M636.475936,373.939394 C627.457665,353.939394 625.317736,331.666667 630.514706,310.30303 C634.183155,298.030303 647.175579,291.212121 659.556595,294.848485 C670.867647,298.181818 677.898841,309.393939 675.758913,320.909091 C673.771836,329.242424 672.396168,349.090909 680.955882,356.515152 C689.515597,363.939394 714.124777,362.272727 745.306595,350.909091 C757.381907,346.515152 770.832888,352.575758 775.265597,364.545455 C779.698307,376.515152 773.584225,389.848485 761.508913,394.242424 L761.508913,394.242424 C710.762032,412.727273 673.160428,411.515152 649.926916,390.909091 C644.577094,386.060606 639.991533,380.30303 636.475936,373.939394 Z" id="Path" fill="#1289FF" fill-rule="nonzero"></path>
            <g id="Group" transform="translate(1187.660428, 28.787879)">
                <path d="M7.79545455,76.969697 C9.93538324,76.3636364 12.0753119,77.2727273 12.8395722,79.3939394 C13.4509804,80.7575758 12.8395722,80 13.7566845,81.3636364 C13.9095365,80.4545455 14.5209447,79.5454545 15.438057,78.9393939 C17.2722816,77.7272727 19.5650624,78.1818182 20.7878788,80 C20.9407308,80.1515152 21.0935829,80.4545455 21.2464349,80.7575758 C24.60918,89.5454545 30.2647059,97.1212121 37.7544563,102.878788 C38.2130125,103.333333 39.1301248,103.333333 39.5886809,102.727273 C40.0472371,102.272727 40.0472371,101.363636 39.4358289,100.909091 C39.1301248,100.454545 38.6715686,100 38.2130125,99.5454545 C35.9202317,97.4242424 33.9331551,95.1515152 32.2517825,92.5757576 C31.0289661,90.9090909 31.3346702,88.4848485 33.1688948,87.2727273 C33.4745989,86.969697 33.9331551,86.8181818 34.2388592,86.6666667 C35.7673797,86.2121212 37.4487522,86.6666667 38.3658645,88.030303 C39.894385,90.1515152 41.7286096,92.1212121 43.5628342,93.9393939 C47.5369875,97.5757576 49.8297683,102.727273 49.9826203,108.181818 C49.9826203,113.636364 53.1925134,118.636364 58.236631,121.060606 L72.6047237,125.909091 L56.8609626,148.333333 C47.2312834,143.787879 37.7544563,138.787879 28.5833333,133.181818 L25.5262923,131.515152 C22.3163993,129.393939 19.2593583,126.969697 16.5080214,124.393939 L15.1323529,123.181818 C9.78253119,117.424242 5.04411765,111.060606 1.5285205,104.090909 C0.45855615,102.121212 1.2228164,99.6969697 3.20989305,98.4848485 C4.12700535,98.1818182 5.04411765,98.1818182 5.8083779,98.4848485 C4.8912656,96.6666667 3.82130125,94.6969697 2.90418895,92.4242424 C1.98707665,90.4545455 2.90418895,88.030303 4.8912656,87.1212121 C5.65552585,86.8181818 6.57263815,86.8181818 7.48975045,87.1212121 C6.87834225,85.7575758 6.26693405,84.5454545 5.65552585,83.1818182 C4.43270945,81.3636364 4.8912656,78.9393939 6.57263815,77.7272727 C6.87834225,77.2727273 7.3368984,77.1212121 7.79545455,76.969697 L7.79545455,76.969697 Z" id="Path" fill="#009FFF" fill-rule="nonzero"></path>
                <path d="M197.331996,491.515152 L193.052139,516.060606 C192.440731,518.939394 193.052139,521.818182 194.58066,524.242424 C198.707665,530.454545 200.541889,537.878788 200.083333,545.30303 C198.554813,558.484848 187.090909,555.151515 165.997326,566.818182 C145.056595,578.484848 126.255793,580 115.403298,575 C61.7522282,550.454545 168.137255,552.575758 168.137255,509.69697 L168.137255,473.181818" id="Path" fill="#6FB7FF" fill-rule="nonzero"></path>
                <path d="M227.902406,507.727273 L223.622549,532.272727 C223.163993,535.151515 223.622549,538.030303 225.15107,540.454545 C229.278075,546.666667 231.112299,554.090909 230.653743,561.666667 C229.125223,574.848485 217.661319,571.515152 196.720588,583.181818 C175.779857,594.848485 156.979055,596.363636 146.12656,591.363636 C92.1697861,566.666667 198.707665,568.787879 198.707665,525.909091 L198.707665,489.393939" id="Path" fill="#6FB7FF" fill-rule="nonzero"></path>
                <path d="M153.004902,504.393939 C168.442959,513.181818 187.549465,513.181818 203.140374,504.393939 C210.782977,500 215.368538,491.969697 215.368538,483.181818 L215.368538,248.484848 L140.776738,248.484848 L140.776738,483.181818 C140.776738,491.818182 145.515152,500 153.004902,504.393939 Z" id="Path" fill="url(#linearGradient-5)" fill-rule="nonzero"></path>
                <path d="M189.995098,525.909091 C205.433155,534.69697 224.539661,534.69697 239.977718,525.909091 C247.620321,521.515152 252.358734,513.484848 252.358734,504.69697 L252.358734,316.818182 L177.614082,270 L177.614082,504.545455 C177.766934,513.484848 182.352496,521.666667 189.995098,525.909091 Z" id="Path" fill="url(#linearGradient-6)" fill-rule="nonzero"></path>
                <path d="M219.342692,297.424242 L145.820856,255.30303 C145.820856,255.30303 138.178253,140.454545 168.595811,114.242424 L199.471925,103.939394 L252.511586,130 L219.342692,297.424242 Z" id="Path" fill="#00DBCC" fill-rule="nonzero"></path>
                <path d="M240.589127,68.3333333 L240.589127,88.030303 C240.589127,100.30303 248.843137,101.060606 248.843137,101.060606 L240.589127,138.333333 L215.827094,138.333333 C202.681818,138.333333 192.135027,127.878788 192.135027,114.848485 L192.135027,68.3333333 L240.589127,68.3333333 Z" id="Path" fill="url(#linearGradient-7)" fill-rule="nonzero"></path>
                <path d="M220.71836,82.7272727 L199.930481,70.6060606 C171.5,73.6363636 146.432264,90.6060606 133.286988,115.909091 L115.097594,146.060606 C113.416221,143.181818 110.206328,141.515152 106.843583,141.666667 L66.1849376,110.30303 C47.6898396,115.30303 35.3088235,132.575758 36.837344,151.666667 L96.4496435,191.363636 C108.83066,199.848485 125.491533,198.030303 135.73262,187.121212 L137.108289,185.606061 L137.108289,363.636364 C137.108289,375.454545 143.375223,386.363636 153.61631,392.424242 L159.118984,395.454545 L159.118984,189.090909 C159.118984,159.848485 170.888592,131.818182 191.676471,111.060606 L220.71836,82.7272727 Z" id="Path" fill="url(#linearGradient-8)" fill-rule="nonzero"></path>
                <path d="M250.830214,99.6969697 L260.001337,104.848485 C280.33066,116.363636 294.698752,135.909091 299.590018,158.636364 L306.774064,191.363636 C311.66533,214.090909 307.844029,237.878788 296.074421,258.030303 L279.107843,287.121212 L279.107843,378.787879 C279.107843,389.242424 273.452317,398.787879 264.434046,404.090909 L249.913102,412.272727 C230.806595,423.181818 207.26738,423.181818 188.008021,412.272727 L188.008021,214.393939 C186.632353,167.727273 210.630125,123.939394 250.830214,99.6969697 Z" id="Path" fill="url(#linearGradient-9)" fill-rule="nonzero"></path>
                <line x1="235.392157" y1="54.2424242" x2="237.83779" y2="54.2424242" id="Path" stroke="#293754" stroke-width="0.17"></line>
                <path d="M267.338235,313.787879 C250.830214,311.212121 237.990642,298.181818 235.697861,281.818182 L223.622549,288.787879 C223.622549,288.787879 223.622549,319.69697 253.887255,322.727273 L267.338235,313.787879 Z" id="Path" fill="#C6CCD5" fill-rule="nonzero"></path>
                <path d="M234.475045,151.515152 C245.633244,130.909091 257.25,102.575758 249.607398,84.8484848 C247.773173,79.8484848 243.79902,75.7575758 238.754902,73.7878788 L237.83779,76.6666667 L238.296346,75.1515152 L237.83779,76.6666667 C241.964795,78.4848485 245.32754,81.8181818 246.703209,86.2121212 C250.52451,95.3030303 251.135918,113.939394 231.723708,150 L234.475045,151.515152 Z" id="Path" fill="#FF8A6B" fill-rule="nonzero"></path>
                <path d="M201.917558,209.69697 C197.637701,210.757576 193.204991,211.060606 188.772282,210.30303 L189.536542,207.272727 C193.510695,208.030303 197.484848,207.878788 201.30615,206.818182 C199.013369,188.939394 203.446078,170.757576 213.534314,155.757576 C219.18984,148.181818 225.762478,144.848485 232.946524,149.090909 C240.13057,153.484848 242.117647,166.060606 232.029412,184.393939 C226.526738,195.606061 216.897059,204.393939 205.127451,208.939394 C205.738859,212.424242 206.808824,215.909091 208.03164,219.242424 L205.127451,220.454545 C203.904635,216.818182 202.681818,213.333333 201.917558,209.69697 Z M216.132799,156.818182 C206.503119,171.212121 202.528966,188.636364 204.821747,205.757576 C215.674242,201.363636 224.539661,193.030303 229.583779,182.424242 C238.754902,165.909091 237.073529,154.69697 231.570856,151.212121 C230.348039,150.454545 228.972371,150 227.596702,150 C222.858289,150.606061 218.731283,153.030303 216.132799,156.818182 Z" id="Shape" fill="#FF8A6B" fill-rule="nonzero"></path>
                <path d="M152.699198,170.909091 L155.756239,170.30303 C155.756239,168.333333 145.362299,119.545455 196.87344,105.454545 L195.956328,102.424242 C141.540998,117.424242 152.546346,170.909091 152.699198,170.909091 Z" id="Path" fill="#FF8A6B" fill-rule="nonzero"></path>
                <path d="M166.30303,52.8787879 C166.30303,52.8787879 166.30303,52.8787879 166.30303,52.8787879 C167.220143,50.6060606 167.067291,48.1818182 165.997326,46.0606061 C165.53877,45.1515152 165.385918,40.7575758 165.385918,39.6969697 C165.385918,16.0606061 184.492424,0.454545455 208.337344,0.454545455 C232.182264,0.454545455 251.441622,19.5454545 251.441622,43.1818182 C251.441622,46.5151515 250.983066,50 250.218806,53.1818182 C250.983066,53.030303 251.747326,53.030303 252.511586,53.1818182 C256.638592,54.8484848 257.402852,62.7272727 254.192959,70.9090909 C250.983066,79.0909091 245.021836,84.3939394 240.741979,82.7272727 C238.296346,81.8181818 237.073529,78.7878788 237.073529,74.5454545 C230.195187,80.6060606 221.48262,84.3939394 212.311497,85.3030303 C202.83467,92.5757576 189.995098,93.6363636 179.295455,88.030303 C166.30303,82.8787879 164.315954,78.7878788 164.163102,75.3030303 C164.621658,74.2424242 162.328877,59.5454545 166.30303,52.8787879 Z" id="Path" fill="#009FFF" fill-rule="nonzero"></path>
                <ellipse id="Oval" fill="#293754" fill-rule="nonzero" cx="155.603387" cy="180.30303" rx="11.4639037" ry="11.3636364"></ellipse>
                <ellipse id="Oval" fill="#293754" fill-rule="nonzero" cx="189.689394" cy="208.030303" rx="7.0311943" ry="6.96969697"></ellipse>
                <ellipse id="Oval" fill="#293754" fill-rule="nonzero" cx="206.961676" cy="220.30303" rx="7.0311943" ry="6.96969697"></ellipse>
                <path d="M214.909982,57.7272727 C214.604278,56.5151515 213.534314,55.6060606 212.770053,54.8484848 C211.852941,54.0909091 210.935829,53.3333333 209.865865,52.7272727 C207.878788,51.5151515 205.738859,50.7575758 203.446078,50.1515152 C201.30615,49.6969697 199.013369,49.6969697 196.720588,50.1515152 C194.58066,50.6060606 192.593583,51.6666667 190.91221,53.030303 C193.052139,52.5757576 195.039216,52.1212121 197.026292,51.969697 C199.013369,51.969697 201.000446,52.1212121 203.140374,52.5757576 C205.127451,53.030303 207.114528,53.6363636 209.101604,54.3939394 C210.018717,54.8484848 211.088681,55.3030303 212.005793,55.7575758 C213.22861,56.3636364 214.298574,56.8181818 214.909982,57.7272727 Z" id="Path" fill="url(#linearGradient-10)" fill-rule="nonzero" opacity="0.85"></path>
                <path d="M166.914439,48.4848485 C166.761586,47.7272727 166.455882,46.969697 165.997326,46.0606061 C166.150178,46.0606061 166.30303,46.0606061 166.455882,46.0606061 C168.748663,45.9090909 170.888592,46.2121212 173.02852,47.1212121 C175.168449,47.8787879 176.849822,49.2424242 178.22549,50.9090909 C176.238414,50.1515152 174.404189,49.3939394 172.417112,48.9393939 C170.582888,48.4848485 168.748663,48.3333333 166.914439,48.4848485 Z" id="Path" fill="url(#linearGradient-11)" fill-rule="nonzero" opacity="0.85"></path>
                <path d="M199.930481,58.3333333 C200.083333,60.3030303 199.166221,62.1212121 197.790553,62.2727273 C196.414884,62.4242424 195.039216,60.9090909 194.886364,58.7878788 C194.886364,58.030303 194.886364,57.4242424 195.039216,56.8181818 C196.567736,57.1212121 198.249109,57.7272727 199.930481,58.3333333 Z" id="Path" fill="url(#linearGradient-12)" fill-rule="nonzero" opacity="0.85"></path>
                <path d="M173.02852,53.030303 C173.181373,55 172.26426,56.8181818 170.888592,56.969697 C169.512923,57.1212121 168.137255,55.6060606 167.984403,53.4848485 C167.984403,52.7272727 167.984403,52.1212121 168.137255,51.5151515 C169.665775,51.8181818 171.347148,52.2727273 173.02852,53.030303 Z" id="Path" fill="url(#linearGradient-13)" fill-rule="nonzero" opacity="0.85"></path>
                <path d="M180.518271,51.6666667 C180.518271,51.6666667 177.766934,67.1212121 175.627005,72.7272727 C173.487077,78.3333333 179.295455,81.6666667 182.352496,78.9393939" id="Path" fill="url(#linearGradient-14)" fill-rule="nonzero" opacity="0.4"></path>
                <path d="M212.770053,116.515152 C234.475045,103.484848 240.589127,80 235.392157,54.2424242 L228.666667,54.2424242 C228.666667,54.2424242 214.909982,89.8484848 178.684046,82.7272727 C165.53877,78.030303 164.315954,77.8787879 164.163102,74.6969697 C163.398841,84.2424242 168.595811,94.2424242 163.551693,102.878788 C158.507576,111.515152 173.945633,139.545455 212.770053,116.515152 Z" id="Path" fill="url(#linearGradient-15)" fill-rule="nonzero"></path>
                <path d="M186.479501,93.030303 C183.575312,93.9393939 175.627005,95.7575758 170.73574,88.9393939 C170.582888,88.6363636 170.73574,88.3333333 171.194296,88.3333333 L186.479501,92.2727273 C186.785205,92.4242424 186.785205,92.8787879 186.479501,93.030303 Z" id="Path" fill="url(#linearGradient-16)" fill-rule="nonzero"></path>
                <path d="M99.6595365,559.393939 C97.6724599,568.636364 111.887701,581.818182 135.274064,577.272727 C156.061943,573.181818 152.08779,571.060606 173.945633,567.727273 C191.982175,564.848485 193.357843,560.606061 193.357843,560.606061 C193.663547,560 195.34492,555.909091 195.497772,555.30303 C192.746435,557.121212 186.479501,561.666667 177.002674,563.030303 C151.323529,566.818182 155.603387,569.69697 136.496881,573.030303 C116.014706,576.666667 103.022282,569.242424 99.6595365,559.393939 Z" id="Path" fill="#91CFFF" fill-rule="nonzero"></path>
                <path d="M99.6595365,559.393939 L99.6595365,559.393939 C103.022282,569.242424 116.014706,576.515152 136.649733,573.030303 C155.756239,569.69697 151.476381,566.818182 177.155526,563.030303 C186.632353,561.666667 192.593583,559.090909 195.650624,555.30303 C198.401961,547.424242 197.790553,543.484848 197.637701,536.969697 C195.956328,539.848485 193.052139,543.181818 187.549465,544.848485 C179.601159,547.272727 174.862745,545.151515 174.862745,545.151515 L165.53877,551.363636 L172.722816,542.272727 C172.722816,542.272727 170.277184,533.181818 160.494652,528.787879 C157.437611,527.424242 153.922014,528.030303 151.476381,530.151515 C135.426916,544.090909 116.626114,551.060606 104.245098,554.848485 C101.493761,555.757576 100.118093,557.272727 99.6595365,559.393939 Z" id="Path" fill="url(#linearGradient-17)" fill-rule="nonzero"></path>
                <path d="M130.229947,577.727273 C129.618538,587.424242 149.642157,603.636364 172.875668,595.30303 C193.510695,587.878788 189.077986,586.363636 210.782977,579.545455 C228.666667,573.939394 229.736631,568.181818 229.736631,568.030303 C229.889483,567.272727 230.042335,566.666667 230.195187,566.060606 C227.596702,568.333333 222.705437,571.363636 213.22861,574.242424 C187.702317,582.121212 192.440731,584.393939 173.487077,590.757576 C153.157754,597.575758 135.274064,587.272727 130.229947,577.727273 Z" id="Path" fill="#91CFFF" fill-rule="nonzero"></path>
                <path d="M130.229947,577.727273 L130.229947,577.727273 C135.274064,587.121212 153.157754,597.424242 173.487077,590.606061 C192.440731,584.242424 187.702317,581.969697 213.22861,574.090909 C222.705437,571.212121 227.596702,568.181818 230.195187,565.909091 C231.723708,557.424242 230.653743,549.545455 227.138146,543.939394 C225.91533,547.121212 226.221034,551.212121 220.871212,553.787879 C213.075758,557.424242 207.878788,556.060606 207.878788,556.060606 L199.319073,563.787879 L205.280303,553.333333 C205.280303,553.333333 200.389037,545.606061 190.453654,542.727273 C187.855169,541.969697 184.95098,542.878788 183.116756,545 C168.442959,561.515152 146.12656,566.363636 133.898396,572.121212 C131.605615,573.636364 130.382799,575.606061 130.229947,577.727273 Z" id="Path" fill="url(#linearGradient-18)" fill-rule="nonzero"></path>
            </g>
            <ellipse id="Oval" fill="#3F9FFF" fill-rule="nonzero" transform="translate(1160.323251, 496.237773) rotate(-63.019862) translate(-1160.323251, -496.237773) " cx="1160.32325" cy="496.237773" rx="35.9758784" ry="25.1765394"></ellipse>
            <path d="M1182.31061,936.666667 L1160.91132,962.121212 C1148.98886,967.575758 1135.69073,969.848485 1122.54545,968.636364 C1100.84046,966.666667 1106.34314,958.030303 1124.07398,949.545455 C1130.64661,946.515152 1136.30214,942.121212 1140.73485,936.515152 C1141.80481,935 1144.86185,928.333333 1142.87478,926.060606 C1144.709,926.363636 1146.54323,926.818182 1148.37745,927.424242 C1151.89305,928.484848 1155.10294,930 1158.00713,932.121212 C1160.14706,933.787879 1161.36988,936.515152 1161.36988,939.242424 L1161.36988,940.606061 C1161.36988,940.606061 1179.10071,933.939394 1182.0049,925.757576 L1182.31061,936.666667 Z" id="Path" fill="url(#radialGradient-19)" fill-rule="nonzero"></path>
            <path d="M1181.6992,927.121212 C1178.79501,935.30303 1161.06417,941.969697 1161.06417,941.969697 L1161.06417,940.606061 C1161.06417,937.878788 1159.84135,935.30303 1157.70143,933.484848 C1154.79724,931.363636 1151.43449,929.848485 1148.07175,928.787879 L1151.43449,924.242424 C1154.64439,919.545455 1155.8672,913.636364 1154.49153,908.181818 L1122.23975,774.69697 L1128.96524,771.666667 L1178.1836,786.515152 L1181.85205,922.424242 L1181.6992,927.121212 Z" id="Path" fill="#3F9FFF" fill-rule="nonzero"></path>
            <path d="M1190.71747,966.363636 C1181.54635,968.484848 1172.68093,984.242424 1156.47861,985.30303 C1140.27629,986.515152 1122.0869,981.060606 1142.72193,968.181818 C1150.36453,963.181818 1157.09002,956.969697 1162.74554,949.848485 C1162.74554,949.090909 1167.33111,941.666667 1165.03832,939.090909 C1166.7197,939.393939 1168.24822,939.848485 1169.77674,940.30303 C1173.44519,941.363636 1176.96078,943.030303 1180.17068,945.151515 C1182.31061,946.969697 1183.53342,949.545455 1183.53342,952.272727 L1183.53342,953.636364 C1183.53342,953.636364 1208.44831,944.393939 1204.0156,933.939394 L1206.30838,939.090909 C1216.24376,959.545455 1200.34715,964.545455 1190.71747,966.363636 L1190.71747,966.363636 Z" id="Path" fill="url(#radialGradient-20)" fill-rule="nonzero"></path>
            <path d="M1203.86275,935.454545 C1208.29545,945.909091 1183.38057,955.151515 1183.38057,955.151515 L1183.38057,953.787879 C1183.38057,951.060606 1182.15775,948.484848 1180.01783,946.666667 C1176.80793,944.393939 1173.29234,942.878788 1169.62389,941.818182 C1172.06952,938.181818 1174.20945,934.545455 1176.34938,930.757576 C1176.96078,929.69697 1177.11364,928.333333 1176.96078,927.121212 L1158.77139,784.090909 L1193.1631,771.060606 C1187.66043,783.484848 1199.88859,801.818182 1207.8369,824.242424 C1215.7852,846.666667 1200.65285,888.787879 1199.58289,906.666667 C1197.90152,922.575758 1196.9844,920.757576 1203.86275,935.454545 L1203.86275,935.454545 Z" id="Path" fill="#6FB7FF" fill-rule="nonzero"></path>
            <path d="M1224.49777,765.151515 L1224.49777,794.090909 C1224.49777,797.272727 1222.8164,800.151515 1220.06506,801.818182 L1217.92513,803.181818 C1203.55704,812.272727 1185.06194,812.575758 1170.38815,803.636364 L1106.80169,765.151515 C1104.20321,763.484848 1102.52184,760.606061 1102.52184,757.424242 L1103.43895,695.30303 L1111.69296,535 C1111.69296,535 1118.87701,497.727273 1135.99643,493.181818 C1130.49376,507.121212 1132.78654,521.363636 1142.26337,526.969697 C1153.26872,533.484848 1170.08244,525.909091 1179.71212,510 L1180.62923,508.484848 L1181.39349,616.818182 L1224.49777,765.151515 Z" id="Path" fill="url(#linearGradient-21)" fill-rule="nonzero"></path>
            <path d="M1230.1533,766.515152 C1229.84759,768.787879 1228.47193,770.757576 1226.6377,771.969697 L1213.33957,780.151515 C1199.27718,789.242424 1181.24064,789.848485 1166.41399,781.818182 L1156.78431,776.666667 L1158.77139,656.212121 L1151.43449,659.545455 C1144.86185,662.727273 1137.0664,662.727273 1130.34091,659.545455 L1125.14394,625.30303 L1125.6025,624.848485 L1126.36676,624.393939 L1126.36676,624.393939 L1126.82531,624.393939 L1127.74242,623.939394 C1137.83066,619.393939 1148.2246,615.454545 1158.77139,612.272727 L1158.77139,597.121212 C1158.77139,597.121212 1155.5615,529.090909 1174.82086,495 C1194.08021,460.909091 1189.49465,495 1189.49465,495 C1206.61408,504.848485 1218.84225,521.363636 1222.8164,540.606061 C1227.55481,566.060606 1231.07041,602.727273 1204.93271,629.242424 C1206.91979,636.212121 1209.97683,642.727273 1213.79813,648.787879 C1214.25668,649.545455 1214.71524,650.30303 1215.1738,651.060606 C1239.01872,690.30303 1232.29323,751.666667 1230.1533,766.515152 Z" id="Path" fill="#FFFFFF" fill-rule="nonzero"></path>
            <path d="M1189.95321,480.151515 L1189.18895,479.242424 C1189.49465,479.393939 1189.80036,479.69697 1189.95321,480.151515 Z" id="Path" fill="#97A2B9" fill-rule="nonzero"></path>
            <line x1="1125.9082" y1="624.393939" x2="1126.67246" y2="623.939394" id="Path" stroke="#FFFFFF" stroke-width="0.2"></line>
            <path d="M1159.53565,611.515152 C1171.45811,607.424242 1181.54635,603.333333 1181.39349,596.818182" id="Path" stroke="#FFFFFF" stroke-width="0.2"></path>
            <path d="M1120.71123,630.30303 C1117.04278,638.333333 1118.41845,647.878788 1124.22683,654.545455" id="Path" stroke="#FFFFFF" stroke-width="0.2"></path>
            <path d="M1043.82665,630.454545 L1043.82665,619.69697 C1043.82665,612.727273 1047.64795,606.515152 1053.91488,603.181818 L1088.00089,585.151515 C1090.90508,583.787879 1092.58645,580.909091 1092.58645,577.878788 C1093.19786,565.151515 1095.18494,530.757576 1102.67469,511.969697 C1106.64884,499.242424 1118.2656,490.30303 1131.71658,489.69697 L1135.84358,493.636364 C1135.84358,493.636364 1119.64127,495.909091 1119.18271,572.878788 C1119.18271,646.515152 1116.58422,753.030303 1116.58422,753.030303 L1108.33021,748.636364 C1099.31194,743.636364 1093.80927,734.090909 1094.11497,723.939394 L1095.49064,626.515152 L1043.82665,630.454545 Z" id="Path" fill="#FFFFFF" fill-rule="nonzero"></path>
            <path d="M1119.48841,582.121212 C1119.48841,582.121212 1111.2344,530.151515 1113.52718,507.878788 L1120.55838,507.878788 L1114.90285,500.606061 C1117.80704,488.484848 1127.58957,479.090909 1139.81774,476.666667 L1136.45499,493.181818 C1136.60784,493.181818 1120.86408,494.69697 1119.48841,582.121212 Z" id="Path" fill="url(#radialGradient-22)" fill-rule="nonzero"></path>
            <path d="M1141.65196,649.393939 C1141.1934,656.969697 1137.52496,662.575758 1130.34091,659.393939 L1128.81239,658.636364 C1127.13102,657.575758 1125.44964,656.212121 1124.22683,654.545455 C1130.34091,653.787879 1136.14929,651.969697 1141.65196,649.393939 Z" id="Path" fill="#293754" fill-rule="nonzero"></path>
            <path d="M1134.31506,628.030303 C1130.34091,630.757576 1125.44964,631.666667 1120.71123,630.454545 C1121.78119,628.484848 1123.15686,626.818182 1124.99109,625.454545 C1126.51961,624.242424 1129.7295,623.030303 1134.31506,628.030303 L1134.31506,628.030303 Z" id="Path" fill="#293754" fill-rule="nonzero"></path>
            <ellipse id="Oval" fill="#293754" fill-rule="nonzero" transform="translate(1055.148103, 614.831423) rotate(-89.170004) translate(-1055.148103, -614.831423) " cx="1055.1481" cy="614.831423" rx="11.5152295" ry="11.1582341"></ellipse>
            <path d="M1141.65196,649.393939 C1136.14929,651.969697 1130.34091,653.787879 1124.22683,654.545455 C1110.01159,656.060606 1122.0869,624.242424 1119.79412,629.848485 L1120.71123,629.848485 C1125.29679,631.060606 1130.34091,630.151515 1134.31506,627.424242 C1135.38503,628.636364 1136.45499,629.848485 1137.3721,631.363636 C1140.582,636.818182 1142.11052,643.181818 1141.65196,649.393939 L1141.65196,649.393939 Z" id="Path" fill="#3F9FFF" fill-rule="nonzero"></path>
            <path d="M1057.88904,607.727273 C1052.23351,605.151515 1045.66087,605.757576 1040.4639,609.090909 C1037.55971,610.757576 1035.72549,613.939394 1035.87834,617.272727 C1035.87834,620.30303 1037.25401,623.181818 1039.8525,625 L1048.10651,631.060606 C1048.71791,631.212121 1049.32932,631.212121 1050.09358,631.060606 C1051.6221,630.757576 1052.53922,629.393939 1052.23351,627.878788 C1052.08066,627.424242 1051.92781,626.969697 1051.6221,626.666667 C1050.70499,625.606061 1051.16355,623.030303 1052.99777,622.272727 C1053.15062,622.272727 1053.15062,622.121212 1053.30348,622.121212 C1055.74911,621.666667 1058.19474,620.606061 1060.18182,619.090909 C1060.48752,618.787879 1060.79323,618.484848 1060.94608,618.181818 C1063.23886,615 1062.32175,610.606061 1059.11185,608.333333 C1058.6533,608.030303 1058.34759,607.878788 1057.88904,607.727273 Z" id="Path" fill="#6FB7FF" fill-rule="nonzero"></path>
            <path d="M1180.32353,508.636364 L1179.40642,510.151515 C1169.77674,526.060606 1155.5615,534.848485 1141.95766,527.121212 C1128.35383,519.393939 1130.18806,507.272727 1135.69073,493.333333 L1141.95766,493.333333 C1141.95766,493.333333 1129.11809,513.181818 1144.86185,522.272727 C1160.75847,531.515152 1180.32353,508.636364 1180.32353,508.636364 Z" id="Path" fill="#FFFFFF" fill-rule="nonzero"></path>
            <path d="M1194.53877,496.666667 C1192.39884,506.969697 1187.50758,516.363636 1180.47638,524.242424 L1173.75089,522.878788 L1176.80793,529.242424 C1166.10829,551.212121 1158.00713,596.515152 1158.00713,596.515152 C1158.00713,596.515152 1155.40865,527.878788 1174.668,493.939394 C1182.0049,480.909091 1187.50758,477.878788 1189.49465,479.545455 L1190.25891,480.454545 C1194.08021,484.69697 1195.60873,490.757576 1194.53877,496.666667 L1194.53877,496.666667 Z" id="Path" fill="url(#radialGradient-23)" fill-rule="nonzero"></path>
            <path d="M1182.92201,409.69697 C1170.8467,394.848485 1135.84358,387.121212 1123.76827,401.969697 C1119.18271,406.515152 1113.68004,417.121212 1111.69296,423.181818 C1097.32487,427.727273 1090.75223,440 1095.33779,454.242424 C1098.85339,465.454545 1103.13324,470.30303 1114.90285,470.454545 C1119.18271,470.454545 1123.46257,469.545455 1127.43672,467.575758 C1137.67781,472.878788 1149.60027,473.787879 1160.45276,470.151515 C1161.06417,473.787879 1163.81551,490.151515 1159.53565,502.424242 C1158.61854,505.151515 1161.21702,507.121212 1163.96836,506.363636 C1178.4893,502.424242 1195.30303,486.818182 1199.43004,458.484848 C1202.94563,433.484848 1190.71747,419.393939 1182.92201,409.69697 Z" id="Path" fill="url(#linearGradient-24)" fill-rule="nonzero"></path>
            <path d="M1106.80169,448.333333 C1110.9287,454.242424 1113.37433,461.060606 1113.83289,468.181818 C1116.58422,483.787879 1123.15686,501.818182 1143.33333,502.272727 C1165.64973,502.727273 1166.56684,475 1164.27406,467.272727 C1169.31818,465.454545 1172.68093,460.909091 1173.13948,455.606061 C1174.0566,446.060606 1169.01248,439.848485 1162.8984,447.878788 C1156.78431,456.060606 1150.51738,462.727273 1135.84358,460.151515 C1122.54545,457.727273 1117.04278,451.363636 1110.9287,437.878788 C1110.77585,437.878788 1106.80169,440.30303 1106.80169,448.333333 L1106.80169,448.333333 Z" id="Path" fill="#6FB7FF" fill-rule="nonzero"></path>
            <path d="M1158.46569,683.636364 L1158.46569,656.363636 C1175.73797,649.848485 1191.78743,640.30303 1206.00267,628.484848 C1207.98975,635.454545 1211.04679,641.969697 1214.86809,648.030303 C1215.63235,648.787879 1192.09314,682.272727 1158.46569,683.636364 Z" id="Path" fill="url(#radialGradient-25)" fill-rule="nonzero"></path>
            <g id="Group" transform="translate(1112.762923, 459.090909)" fill-rule="nonzero">
                <path d="M20.9407308,0.606060606 C19.5650624,1.21212121 18.9536542,1.96969697 18.1893939,3.03030303 C19.4122103,2.42424242 20.6350267,1.66666667 21.8578431,1.36363636 C22.3163993,1.21212121 22.7749554,1.21212121 23.0806595,1.06060606" id="Path" fill="url(#linearGradient-26)" opacity="0.85"></path>
                <path d="M1.98707665,4.54545455 C1.8342246,4.09090909 1.5285205,3.63636364 1.06996435,3.18181818 C1.2228164,3.18181818 1.2228164,3.03030303 1.37566845,3.03030303 C2.7513369,2.57575758 4.2798574,2.42424242 5.8083779,2.57575758 C7.3368984,2.72727273 8.71256684,3.33333333 9.78253119,4.09090909 C8.40686275,3.93939394 7.0311943,3.78787879 5.65552585,3.78787879 C4.2798574,4.09090909 3.057041,4.24242424 1.98707665,4.54545455 Z" id="Path" fill="url(#linearGradient-27)" opacity="0.85"></path>
                <path d="M25.8319964,4.6969697 C26.5962567,5.90909091 26.4434046,7.12121212 25.6791444,7.72727273 C24.9148841,8.18181818 23.6920677,7.57575758 22.9278075,6.51515152 C22.6221034,6.06060606 22.6221034,5.75757576 22.4692513,5.3030303 C23.5392157,4.84848485 24.60918,4.6969697 25.8319964,4.6969697 Z" id="Path" fill="url(#linearGradient-28)" opacity="0.85"></path>
                <path d="M7.18404635,6.81818182 C7.79545455,8.03030303 7.79545455,9.24242424 7.0311943,9.6969697 C6.26693405,10.1515152 5.04411765,9.54545455 4.2798574,8.33333333 C3.9741533,7.87878788 3.9741533,7.57575758 3.82130125,7.12121212 C4.8912656,7.12121212 6.114082,6.96969697 7.18404635,6.81818182 Z" id="Path" fill="url(#linearGradient-29)" opacity="0.85"></path>
                <path d="M14.2152406,5.3030303 C14.2152406,5.3030303 14.9795009,15.7575758 14.5209447,19.6969697 C14.0623886,23.6363636 18.342246,24.8484848 19.8707665,22.5757576" id="Path" fill="url(#linearGradient-30)" opacity="0.4"></path>
                <path d="M27.8190731,30 C26.1377005,31.5151515 21.0935829,35.1515152 15.438057,31.8181818 C15.1323529,31.6666667 15.285205,31.3636364 15.5909091,31.3636364 L27.666221,29.5454545 C27.8190731,29.3939394 27.9719251,29.6969697 27.8190731,30 Z" id="Path" fill="url(#linearGradient-31)"></path>
                <path d="M36.0730838,35.6060606 C40.8114973,37.5757576 47.2312834,33.030303 50.2883244,25.4545455 C53.3453654,17.8787879 51.969697,10.1515152 47.2312834,8.33333333 C42.4928699,6.36363636 36.0730838,10.9090909 33.0160428,18.4848485 C29.9590018,26.0606061 31.1818182,33.7878788 36.0730838,35.6060606 Z" id="Path" fill="url(#linearGradient-32)" opacity="0.54"></path>
            </g>
            <path d="M736.594029,258.484848 C736.441176,258.030303 736.135472,257.575758 735.676916,257.121212 C735.829768,257.121212 735.829768,256.969697 735.98262,256.969697 C737.358289,256.515152 738.886809,256.363636 740.41533,256.515152 C741.94385,256.666667 743.319519,257.272727 744.389483,258.030303 C743.013815,257.878788 741.638146,257.727273 740.262478,257.727273 C739.039661,257.878788 737.816845,258.030303 736.594029,258.484848 Z" id="Path" fill="url(#linearGradient-33)" fill-rule="nonzero" opacity="0.85"></path>
            <path d="M731.702763,295.757576 L739.192513,294.69697 C739.498217,294.69697 739.65107,295 739.498217,295.151515 C738.275401,296.212121 735.676916,298.181818 732.314171,298.333333" id="Path" fill="url(#linearGradient-34)" fill-rule="nonzero"></path>
            <path d="M745.918004,313.181818 C750.656417,315.151515 757.076203,310.606061 760.133244,303.030303 C763.190285,295.454545 761.814617,287.727273 757.076203,285.909091 C752.33779,284.090909 745.918004,288.484848 742.860963,296.060606 C739.803922,303.484848 741.17959,311.212121 745.918004,313.181818 Z" id="Path" fill="url(#linearGradient-35)" fill-rule="nonzero" opacity="0.54"></path>
            <path d="M1060.02897,620.606061 C1060.02897,620.606061 1056.51337,633.939394 1050.85784,638.030303 C1047.95365,640.30303 1047.18939,641.515152 1045.04947,642.272727 C1043.52094,642.878788 1041.68672,641.969697 1041.22816,640.454545 C1040.92246,639.545455 1041.07531,638.636364 1041.53387,637.727273 C1041.68672,637.121212 1046.42513,634.69697 1046.88369,634.242424 C1049.78788,630.757576 1047.18939,626.969697 1043.21524,629.242424 C1037.40686,635.30303 1031.29278,640.909091 1024.72014,646.060606 C1023.19162,646.969697 1021.3574,646.969697 1019.82888,646.060606 C1018.75891,645.30303 1017.38324,645.454545 1016.31328,646.060606 L1015.54902,646.515152 C1014.47906,647.272727 1013.10339,647.272727 1012.03342,646.363636 C1010.65775,645.30303 1010.35205,643.484848 1011.42201,642.121212 C1012.33913,640.909091 1012.18627,639.242424 1011.11631,638.181818 C1010.04635,637.272727 1009.74064,635.606061 1010.65775,634.393939 C1011.11631,633.939394 1011.26916,633.333333 1011.26916,632.575758 C1011.11631,630.757576 1011.57487,628.787879 1012.49198,627.121212 C1014.3262,623.636364 1016.46613,620.30303 1018.91176,617.121212 C1023.34447,613.181818 1021.6631,614.69697 1041.53387,605 L1041.68672,603.484848 C1041.83957,602.424242 1042.60383,601.666667 1043.6738,601.666667 C1043.6738,601.666667 1049.48217,601.969697 1054.37344,606.818182 C1059.26471,611.666667 1061.86319,617.121212 1061.86319,617.121212 L1062.16889,618.181818 C1062.62745,620 1061.25178,621.060606 1060.02897,620.606061 L1060.02897,620.606061 Z" id="Path" fill="url(#radialGradient-36)" fill-rule="nonzero"></path>
            <path d="M342.082888,884.090909 C342.082888,884.090909 323.434938,906.515152 331.07754,926.969697 C331.688948,928.787879 333.064617,930.151515 334.898841,930.909091 C345.139929,936.060606 356.909537,936.818182 367.60918,933.181818 C383.352941,925.909091 395.275401,932.424242 408.114973,922.878788 C414.229055,917.878788 415.146168,909.090909 410.10205,903.030303 C407.809269,900.151515 404.446524,898.333333 400.930927,897.878788 C387.327094,896.515152 375.557487,888.181818 369.901961,876.060606" id="Path" fill="#009FFF" fill-rule="nonzero"></path>
            <path d="M384.881462,904.545455 C376.321747,920.454545 374.640374,939.242424 380.143048,956.515152 C389.467023,958.636364 399.402406,958.030303 408.420677,954.848485 C423.55303,962.121212 441.131016,962.727273 456.874777,956.515152 C465.128788,953.181818 472.312834,947.575758 477.2041,940.151515 C479.038324,937.575758 478.274064,933.939394 475.675579,932.121212 C475.064171,931.666667 474.299911,931.363636 473.688503,931.212121 C464.823084,928.939394 455.651961,928.939394 446.786542,931.212121 C424.928699,936.969697 390.68984,865.151515 390.68984,865.151515 L384.881462,904.545455 Z" id="Path" fill="url(#linearGradient-37)" fill-rule="nonzero"></path>
            <path d="M330.160428,890.454545 C346.821301,900 367.303476,900 383.964349,890.454545 C392.21836,885.757576 397.262478,877.121212 397.262478,867.727273 L397.262478,615 L316.403743,615 L316.403743,867.727273 C316.556595,877.272727 321.753565,885.909091 330.160428,890.454545 Z" id="Path" fill="url(#linearGradient-38)" fill-rule="nonzero"></path>
            <path d="M369.901961,913.787879 C386.562834,923.333333 407.045009,923.333333 423.705882,913.787879 C431.807041,909.090909 436.851159,900.454545 436.851159,891.060606 L436.851159,688.787879 L356.145276,638.333333 L356.145276,891.212121 C356.145276,900.606061 361.495098,909.242424 369.901961,913.787879 Z" id="Path" fill="url(#linearGradient-39)" fill-rule="nonzero"></path>
            <path d="M355.533868,485.909091 C355.533868,485.909091 361.953654,501.666667 348.808378,508.787879 L402.153743,520.151515 C402.153743,520.151515 401.236631,505.151515 408.114973,505.909091 C432.265597,508.636364 435.016934,479.242424 435.016934,479.242424 C435.781194,475 435.934046,470.606061 435.628342,466.363636 C435.628342,466.363636 439.143939,462.727273 437.921123,459.393939 C436.698307,456.060606 429.972816,454.090909 429.819964,446.818182 C429.667112,439.545455 437.004011,434.545455 423.094474,416.363636 C409.184938,398.181818 370.819073,424.393939 370.819073,424.393939 L355.533868,485.909091 Z" id="Path" fill="#BFE0FF" fill-rule="nonzero"></path>
            <path d="M316.862299,654.545455 L316.862299,688.787879 C316.862299,693.030303 319.002228,696.969697 322.670677,699.242424 L367.60918,726.969697 C382.741533,736.515152 401.695187,737.878788 418.050357,730.757576 L430.125668,725.606061 C434.558378,723.636364 437.462567,719.242424 437.462567,714.545455 L437.462567,680.30303 C437.462567,685.151515 434.558378,689.393939 430.125668,691.363636 L418.050357,696.666667 C401.695187,703.787879 382.741533,702.424242 367.60918,692.878788 L322.670677,665.151515 C319.002228,662.727273 316.862299,658.787879 316.862299,654.545455 Z" id="Path" fill="#293754" fill-rule="nonzero"></path>
            <path d="M316.862299,548.030303 L316.862299,654.69697 C316.862299,658.939394 319.002228,662.878788 322.670677,665.151515 L367.60918,692.878788 C382.741533,702.424242 401.695187,703.787879 418.050357,696.666667 L430.125668,691.363636 C434.558378,689.393939 437.462567,685.151515 437.462567,680.30303 L437.462567,581.818182 C438.073975,576.818182 438.073975,571.666667 437.462567,566.666667 C436.23975,545.151515 422.941622,526.060606 403.070856,517.272727 C387.174242,510.30303 377.086007,506.969697 371.277629,504.69697 C362.717914,501.212121 353.546791,499.848485 344.375668,501.212121 C331.07754,502.878788 316.862299,513.484848 316.862299,548.030303 L316.862299,548.030303 Z" id="Path" fill="url(#linearGradient-40)" fill-rule="nonzero"></path>
            <path d="M526.575312,610.757576 C526.116756,606.818182 525.046791,603.030303 523.212567,599.69697 C520.46123,594.545455 516.334225,590.30303 511.137255,587.575758 C510.831551,591.363636 508.53877,594.69697 505.176025,596.515152 L494.934938,601.515152 C496.157754,611.363636 502.730392,619.69697 512.054367,623.181818 C515.875668,617.727273 520.766934,613.484848 526.575312,610.757576 Z" id="Path" fill="#FFFFFF" fill-rule="nonzero"></path>
            <path d="M509.150178,592.424242 C509.150178,592.424242 514.805704,574.69697 522.142602,570.757576 C524.435383,569.090909 526.881016,567.727273 529.632353,566.818182 C531.61943,566.515152 533.453654,567.727273 533.759358,569.69697 C533.91221,570.757576 533.606506,571.969697 532.842246,572.727273 C532.230838,573.333333 526.42246,575.30303 525.963904,575.909091 C521.836898,579.393939 524.282531,584.848485 529.326649,582.272727 C537.274955,576.363636 545.528966,570.909091 554.088681,566.060606 C556.075758,565.151515 558.215686,565.454545 559.897059,566.969697 C560.967023,567.878788 562.495544,568.181818 563.871212,567.575758 L564.788324,567.121212 C566.163993,566.515152 567.845365,566.666667 569.068182,567.878788 C570.44385,569.242424 570.44385,571.515152 569.068182,572.878788 C567.845365,574.242424 567.845365,576.212121 569.068182,577.575758 C570.138146,578.939394 570.138146,580.757576 569.068182,582.121212 C568.609626,582.727273 568.303922,583.333333 568.303922,584.090909 C568.15107,586.363636 567.233957,588.484848 565.858289,590.30303 C563.106952,594.090909 560.202763,597.575758 556.840018,600.909091 C551.03164,604.69697 553.018717,602.121212 527.645276,609.848485" id="Path" fill="#BFE0FF" fill-rule="nonzero"></path>
            <path d="M461.460339,659.69697 C483.776738,656.969697 504.411765,647.121212 520.46123,631.363636 C529.173797,621.666667 528.256684,606.818182 518.474153,598.181818 C509.608734,590.30303 496.310606,590.30303 487.292335,597.878788 C481.025401,604.090909 464.364528,615.606061 453.35918,612.121212 C442.353832,608.636364 430.889929,586.666667 424.317291,553.636364 C421.871658,540.909091 409.33779,532.575758 396.498217,535 C383.658645,537.424242 375.251783,549.848485 377.697415,562.575758 C388.244207,615.909091 409.032086,647.727273 439.449643,656.969697 C446.63369,659.090909 454.12344,660 461.460339,659.69697 Z" id="Path" fill="url(#linearGradient-41)" fill-rule="nonzero"></path>
            <g id="Group" transform="translate(1002.709447, 607.575758)" fill-rule="nonzero">
                <path d="M81.1644385,0.151515152 L2.7513369,23.9393939 C1.06996435,24.3939394 0.45855615,26.6666667 1.8342246,27.8787879 L36.3787879,59.3939394 C36.9901961,60 37.9073084,60.1515152 38.6715686,59.8484848 L117.08467,36.0606061 C118.766043,35.6060606 119.377451,33.3333333 118.001783,32.1212121 L83.4572193,0.606060606 C82.8458111,0.151515152 82.0815508,-0.151515152 81.1644385,0.151515152 Z" id="Path" fill="#70B7FF"></path>
                <path d="M22.1635472,23.3333333 L14.9795009,25.4545455 C13.4509804,25.9090909 13.1452763,27.7272727 14.2152406,28.7878788 L41.4229055,53.6363636 C41.8814617,54.0909091 42.6457219,54.2424242 43.4099822,54.0909091 L50.5940285,51.969697 C52.122549,51.5151515 52.5811052,49.6969697 51.3582888,48.6363636 L24.1506239,23.7878788 C23.5392157,23.3333333 22.7749554,23.1818182 22.1635472,23.3333333 Z" id="Path" fill="#E0F0FE"></path>
                <polygon id="Path" fill="#E0F0FE" points="50.1354724 33.3333333 47.3841355 34.2424242 62.6693405 48.1818182 65.4206774 47.4242424"></polygon>
                <polygon id="Path" fill="#E0F0FE" points="41.4229055 17.2727273 38.8244207 18.1818182 69.5476827 46.0606061 72.1461676 45.3030303"></polygon>
                <polygon id="Path" fill="#E0F0FE" points="51.2054367 18.030303 48.6069519 18.9393939 76.2731729 43.9393939 78.8716578 43.1818182"></polygon>
                <polygon id="Path" fill="#E0F0FE" points="63.8921569 21.2121212 61.293672 22.1212121 82.9986631 41.8181818 85.597148 41.0606061"></polygon>
                <polygon id="Path" fill="#E0F0FE" points="61.5993761 10.9090909 59.0008913 11.8181818 89.7241533 39.6969697 92.3226381 38.9393939"></polygon>
                <polygon id="Path" fill="#E0F0FE" points="68.3248663 8.78787879 65.7263815 9.6969697 96.4496435 37.5757576 99.0481283 36.8181818"></polygon>
                <polygon id="Path" fill="#E0F0FE" points="75.0503565 6.66666667 72.4518717 7.57575758 103.175134 35.4545455 105.773619 34.6969697"></polygon>
            </g>
            <path d="M1124.99109,630.454545 C1124.99109,630.454545 1113.06863,623.181818 1106.19029,623.939394 C1102.52184,624.242424 1100.99332,623.939394 1099.00624,624.69697 C1097.47772,625.30303 1096.86631,627.121212 1097.47772,628.636364 C1097.93627,629.545455 1098.70053,630.151515 1099.61765,630.30303 C1100.22906,630.606061 1105.27317,629.090909 1105.88458,629.090909 C1110.47014,629.545455 1111.2344,634.090909 1106.64884,635.151515 C1098.24198,634.69697 1089.83512,634.848485 1081.58111,635.606061 C1079.89973,635.909091 1078.52406,637.272727 1078.06551,638.939394 C1077.7598,640.151515 1076.84269,641.060606 1075.61988,641.212121 L1074.70276,641.363636 C1073.47995,641.515152 1072.40998,642.575758 1072.25713,643.787879 C1071.95143,645.454545 1073.02139,646.969697 1074.70276,647.272727 C1076.23128,647.575758 1077.30125,648.787879 1077.1484,650.30303 C1076.99554,651.666667 1077.91266,653.030303 1079.44118,653.333333 C1080.05258,653.484848 1080.66399,653.787879 1081.12255,654.242424 C1082.34537,655.757576 1083.87389,656.818182 1085.70811,657.424242 C1089.52941,658.636364 1093.35071,659.69697 1097.32487,660.30303 C1103.2861,660.151515 1100.99332,660.151515 1122.0869,653.636364 L1123.30971,654.69697 C1124.07398,655.30303 1125.14394,655.30303 1126.06105,654.69697 L1127.43672,653.636364 L1128.50668,631.060606 L1128.04813,630.151515 C1127.28387,629.242424 1125.6025,629.242424 1124.99109,630.454545 L1124.99109,630.454545 Z" id="Path" fill="url(#radialGradient-42)" fill-rule="nonzero"></path>
            <path d="M808.740196,416.666667 C816.535651,414.545455 819.592692,405 816.535651,401.515152 C807.670232,391.515152 812.408645,393.787879 823.872549,400.606061 C843.896168,412.727273 842.673351,381.818182 853.372995,385.454545 C866.671123,390 872.173797,384.545455 870.95098,374.090909 C869.728164,364.393939 854.595811,350.454545 857.5,336.515152 C860.862745,319.848485 840.839127,322.121212 846.647504,294.393939 C851.080214,273.333333 833.65508,278.333333 836.712121,257.121212 C839.922014,237.272727 823.872549,213.333333 807.670232,206.515152 C785.048128,196.666667 758.604724,202.272727 742.096702,220.606061 C738.581105,224.393939 735.21836,228.333333 734.912656,233.333333 C734.4541,239.393939 736.288324,241.212121 739.498217,245.151515 C743.778075,250.30303 740.109626,255.151515 742.860963,259.69697 C745.612299,264.242424 755.089127,267.424242 755.241979,270.454545 C755.547683,268.939394 756.464795,267.424242 757.840463,266.666667 C759.06328,266.060606 760.5918,266.060606 761.814617,266.515152 C763.801693,267.272727 765.635918,269.242424 766.705882,273.181818 C768.845811,280.454545 766.705882,288.181818 761.203209,293.484848 C763.037433,300.151515 765.02451,309.090909 763.648841,316.212121 C761.814617,326.969697 776.794118,331.515152 772.361408,341.818182 C766.705882,355.151515 778.169786,356.818182 785.353832,363.030303 C795.747772,371.969697 795.442068,380.30303 791.467914,389.848485 C785.506684,403.939394 800.639037,418.939394 808.740196,416.666667 Z" id="Path" fill="url(#linearGradient-43)" fill-rule="nonzero"></path>
            <path d="M434.71123,479.848485 L427.22148,478.787879 C426.915775,478.787879 426.762923,479.090909 426.915775,479.242424 C428.138592,480.30303 430.737077,482.272727 434.099822,482.424242" id="Path" fill="url(#linearGradient-44)" fill-rule="nonzero"></path>
            <path d="M411.936275,465.757576 C407.197861,467.575758 406.127897,476.212121 409.490642,485.151515 C413.006239,493.939394 419.578877,499.69697 424.470143,497.878788 C429.208556,496.060606 430.27852,487.424242 426.915775,478.484848 C423.55303,469.545455 416.674688,463.939394 411.936275,465.757576 Z" id="Path" fill="url(#linearGradient-45)" fill-rule="nonzero" opacity="0.54"></path>
            <path d="M415.604724,459.69697 C413.923351,452.727273 413.159091,456.060606 413.464795,448.939394 C413.464795,447.272727 412.547683,445.606061 410.86631,445 C407.503565,443.787879 403.529412,445 401.848039,451.666667 C399.708111,458.939394 401.848039,466.969697 407.350713,472.272727 C399.708111,474.242424 392.524064,478.030303 386.562834,483.333333 C384.270053,485.151515 382.130125,486.969697 379.990196,489.090909 C374.028966,495.151515 364.399287,495.151515 358.285205,489.393939 C357.826649,488.939394 357.368093,488.484848 356.909537,487.878788 C342.388592,471.515152 333.064617,451.212121 330.007576,429.69697 C326.644831,409.545455 341.165775,390.757576 360.11943,382.727273 C379.073084,374.69697 411.172014,377.424242 417.438948,385.909091 L416.674688,378.939394 C416.674688,378.939394 468.338681,402.878788 435.934046,425.30303 C419.578877,436.666667 418.814617,447.727273 419.120321,459.69697 C419.120321,460.454545 418.508913,461.212121 417.744652,461.363636 C416.674688,461.515152 415.757576,460.909091 415.604724,459.69697 C415.604724,459.848485 415.604724,459.848485 415.604724,459.69697 Z" id="Path" fill="#FFFFFF" fill-rule="nonzero"></path>
        </g>
    </g>
</svg>